<svg width="58" height="58" viewBox="0 0 58 58" fill="none" xmlns="http://www.w3.org/2000/svg">
<path d="M40.6729 37.7966C42.292 36.7332 44.4187 37.8932 44.4187 39.8266V42.9441C44.4187 46.0132 42.0262 49.2999 39.1504 50.2666L31.4412 52.8282C30.0879 53.2874 27.8887 53.2874 26.5595 52.8282L18.8504 50.2666C15.9504 49.2999 13.582 46.0132 13.582 42.9441V39.8024C13.582 37.8932 15.7087 36.7332 17.3037 37.7724L22.282 41.0107C24.1912 42.2916 26.6079 42.9199 29.0245 42.9199C31.4412 42.9199 33.8579 42.2916 35.767 41.0107L40.6729 37.7966Z" fill="url(#paint0_linear_1145_4875)"/>
<path d="M48.2842 15.6118L33.8084 6.11427C31.1984 4.39843 26.8967 4.39843 24.2867 6.11427L9.73836 15.6118C5.07419 18.6326 5.07419 25.4718 9.73836 28.5168L13.605 31.0301L24.2867 37.9901C26.8967 39.7059 31.1984 39.7059 33.8084 37.9901L44.4175 31.0301L47.7284 28.8551V36.2501C47.7284 37.2409 48.55 38.0626 49.5409 38.0626C50.5317 38.0626 51.3534 37.2409 51.3534 36.2501V24.3601C52.32 21.2426 51.3292 17.6176 48.2842 15.6118Z" fill="url(#paint1_linear_1145_4875)"/>
<defs>
<linearGradient id="paint0_linear_1145_4875" x1="13.582" y1="45.2775" x2="41.8885" y2="45.2775" gradientUnits="userSpaceOnUse">
<stop stop-color="#D91334"/>
<stop offset="1" stop-color="#FB4927"/>
</linearGradient>
<linearGradient id="paint1_linear_1145_4875" x1="6.24023" y1="22.0522" x2="47.9791" y2="22.0522" gradientUnits="userSpaceOnUse">
<stop stop-color="#D91334"/>
<stop offset="1" stop-color="#FB4927"/>
</linearGradient>
</defs>
</svg>
