<svg width="58" height="58" viewBox="0 0 58 58" fill="none" xmlns="http://www.w3.org/2000/svg">
<path d="M40.6724 37.7967C42.2915 36.7333 44.4182 37.8933 44.4182 39.8267V42.9442C44.4182 46.0133 42.0257 49.3 39.1499 50.2667L31.4407 52.8283C30.0874 53.2875 27.8882 53.2875 26.559 52.8283L18.8499 50.2667C15.9499 49.3 13.5815 46.0133 13.5815 42.9442V39.8025C13.5815 37.8933 15.7082 36.7333 17.3032 37.7725L22.2815 41.0108C24.1907 42.2917 26.6074 42.92 29.024 42.92C31.4407 42.92 33.8574 42.2917 35.7665 41.0108L40.6724 37.7967Z" fill="white"/>
<path d="M48.2852 15.6116L33.8093 6.11415C31.1993 4.39831 26.8977 4.39831 24.2877 6.11415L9.73934 15.6116C5.07517 18.6325 5.07517 25.4716 9.73934 28.5166L13.606 31.03L24.2877 37.99C26.8977 39.7058 31.1993 39.7058 33.8093 37.99L44.4185 31.03L47.7293 28.855V36.25C47.7293 37.2408 48.551 38.0625 49.5418 38.0625C50.5327 38.0625 51.3543 37.2408 51.3543 36.25V24.36C52.321 21.2425 51.3302 17.6175 48.2852 15.6116Z" fill="white"/>
</svg>
