<?xml version="1.0" encoding="utf-8"?>
<!-- Generator: Adobe Illustrator 26.0.0, SVG Export Plug-In . SVG Version: 6.00 Build 0)  -->
<svg version="1.1" width="117" height="38" id="Layer_1" xmlns="http://www.w3.org/2000/svg" xmlns:xlink="http://www.w3.org/1999/xlink" x="0px" y="0px"
	 viewBox="0 0 1009 301.63" style="enable-background:new 0 0 1009 301.63;" xml:space="preserve">
<style type="text/css">
	.st0{fill:#231F20;}
	.st1{fill:#00A552;}
	.st2{fill:#FEFEFE;}
	.st3{fill:#FCFDFD;}
	.st4{fill:#FDFDFD;}
	.st5{fill:#FCFCFC;}
	.st6{fill:#FCFDFC;}
	.st7{fill:#5CBD93;}
	.st8{fill:#D9E7F1;}
	.st9{fill:#8FD0E6;}
	.st10{fill:#E8E8E8;}
	.st11{fill:#131313;}
	.st12{fill:#1B1B1B;}
	.st13{fill:#1A1A1A;}
	.st14{fill:#3B3B3B;}
	.st15{fill:#262626;}
	.st16{fill:#191919;}
	.st17{fill:#0D0D0D;}
	.st18{fill:#F3F3F3;}
	.st19{fill:#272727;}
	.st20{fill:#1C1C1C;}
	.st21{fill:#F9F9F9;}
	.st22{fill:#0B0B0B;}
	.st23{fill:#010101;}
	.st24{fill:#393939;}
	.st25{fill:#3F3F3F;}
	.st26{fill:#D0D0D0;}
	.st27{fill:#3A3A3A;}
	.st28{fill:#494949;}
	.st29{fill:#202020;}
	.st30{fill:#0DA959;}
	.st31{fill:#03A653;}
	.st32{fill:#04A653;}
	.st33{fill:#19AC61;}
	.st34{fill:#0FA95A;}
	.st35{fill:#8FC7AA;}
	.st36{fill:#0AA757;}
	.st37{fill:#08A658;}
	.st38{fill:#FFFFFF;}
</style>
<path class="st0" d="M420.82,167.38c-0.19,24.44-0.67,44.2-0.51,63.18c0.52,13.52-6.4,17.44-18.23,14.66
	c-9.2-2.16-25.62,8.77-24.42-14.05c1.79-35.16,0.74-70.06,1.65-105.43c0-7.86-4.78-20.99,6.66-22.46
	c13.73-1.4,30.21-8.62,41.14,7.81c15.05,22.48,30.21,44.52,47.61,70.78c0.09-24.01,1.45-43.56,0.41-62.74
	c-1.27-20.17,12.54-16,23.66-16.16c11.13-0.16,19.96-0.4,18.89,15.99c-1.92,33.74-0.56,67.33-1.93,100.74
	c-0.2,8.73,8.2,24.1-7.92,25.86c-15.14,1.53-32.43,6.25-43.61-13.01C452.44,211.77,437.21,192.03,420.82,167.38z"/>
<path class="st0" d="M579.52,217.67c25.97-0.37,46.12-0.65,65.83-0.93c10.3-0.15,18.37,0.64,18.58,15.41
	c0.21,14.78-7.4,15.33-18.15,15.04c-31.81-0.44-64.05,0.01-96.31-0.87c-7.17-0.35-18.74,5.19-21.56-4.17
	c-3.29-10.7-3.91-22.79,6.7-32.79c23.87-22.29,46.83-45.9,69.8-68.62c-0.93-2.23-1.41-4.46-2.33-6.69
	c-16.57,0.23-32.7,0.02-49.26,0.7c-11.19,0.61-19.25,0.72-19.03-15.41c-0.23-16.57,9.19-15.36,19.94-15.51
	c28.22,0.5,56.44,0.1,85.12,1.03c7.17,0.35,18.29-5.19,20.69,5.98c2.38,9.82,3.43,20.55-5.41,29.19
	c-20.76,20.45-40.62,41.34-60.93,62.23C590.1,205.88,587.46,209.05,579.52,217.67z"/>
<path class="st1" d="M207.69,185.15c0,48.94-39.4,88.68-87.8,88.64c-48.02-0.08-87.29-39.61-87.71-87.45
	c-0.42-48.22,37.64-89.61,87.71-89.78C168.33,96.43,207.69,136.25,207.69,185.15z"/>
<path d="M36.09,134.21c2.56-4.16,5.29-8.1,3.82-13.7c-1.72,3.69-2.9,7.29-6.47,9.2c-0.25-0.59,0.13-0.98,0.29-1.27
	c1.72-2.71,1.89-5.47,0.5-8.44c-1.34-2.88-2.35-5.89-2.39-9.12c-0.04-2.71,0.5-5.22,2.39-7.21c0.88-0.93,0.63-1.44-0.25-2.16
	c-2.77-2.29-2.39-5.47,0.8-7.12c0.97-0.51,1.3-1.02,1.22-2.08c-0.17-3.01-0.34-6.06-0.34-9.08c0-1.31-0.55-1.74-1.76-2.08
	c-9.12-2.29-18.23-4.71-27.35-7.08c-0.55-0.13-1.05-0.3-1.97-0.55c6.72-2.71,13.11-5.3,19.53-7.85C55.88,53,87.64,40.32,119.35,27.6
	c1.09-0.42,2.02-0.55,3.15-0.08c36.84,14.8,73.68,29.6,110.56,44.4c0.63,0.25,1.34,0.3,1.93,1.1c-7.56,1.95-15.04,3.86-22.52,5.73
	c-11.85,3.01-23.69,6.02-35.54,8.99c-1.26,0.34-1.72,0.85-1.72,2.25c0.04,6.62-0.08,13.27-0.17,19.93c0,0.34,0,0.68,0,1.15
	c-36.38-26.89-72.55-25.36-108.97-0.25c0-2.97-0.04-5.98,0-8.95c0.04-4.24,0.08-8.48,0.25-12.72c0.04-1.19-0.38-1.53-1.47-1.7
	c-4.7-0.76-9.41-1.65-14.79-2.59c3.44-1.36,6.34-2.5,9.24-3.65c19.87-7.89,39.7-15.78,59.57-23.58c1.93-0.76,2.9-1.61,2.52-3.73
	c-0.08-0.55,0-1.1,0-1.82c-1.89,0.25-3.44,1.19-5.08,1.82c-23.44,9.63-46.84,19.3-70.28,28.97c-1.34,0.55-2.56,0.55-3.86,0.13
	c-1.09-0.34-1.51,0.04-1.51,1.19c-0.04,2.88-0.21,5.77-0.34,8.65c-0.04,0.81,0.13,1.4,0.84,1.95c2.27,1.91,2.44,3.9,0.5,6.19
	c-0.76,0.89-1.05,1.7,0,2.5c4.87,3.56,5.59,8.48,4.49,13.95c-1.22,6.11-4.28,11.28-8.53,15.73
	C37.35,133.66,37.02,134.13,36.09,134.21z"/>
<path class="st2" d="M64.45,185.15c-0.08-30.75,25.12-56.15,55.58-56.02c30.37,0.13,55.41,25.15,55.45,55.51
	c0.04,31.21-24.74,56.49-55.49,56.53C89.44,241.21,64.53,216.11,64.45,185.15z"/>
<path class="st0" d="M857.57,162.41c0.04,22.93-0.89,45.88,0.52,68.58c1.27,19.71-11.78,13.03-21.33,14.64
	c-11.5,1.66-15.01-2.05-14.78-14.42c0.27-37.89-0.23-75.36-1.33-113.02c-0.41-13.55,5-15.47,16.59-15.13
	c40.83,0.27,41.22,0.07,51.44,39.91c3.35,13.48,7.3,27.15,10.6,39.64c6.4-19.29,14.54-39.01,18.72-59.64
	c3.42-15.63,9.13-19.75,24.47-18.9c37.38,2.15,37.72,0.94,38.01,38.02c0.53,29.3-0.48,59.43,1.41,88.5
	c1.18,17.72-8.54,15.35-19.49,16.19c-13.89,0.91-17.27-4.4-16.87-17.36c0.72-23.34-0.13-46.85-5.76-71.85
	c-5.67,22.46-10.74,45.1-16.79,67.77c-2.66,10.63-2.17,21.58-20.25,21.19c-17.69-0.6-20.05-9.52-22.8-22.81
	c-5.03-20.22-10.82-40.03-16.23-60.05C863.1,158.89,861.82,156.53,857.57,162.41z"/>
<path class="st3" d="M150.77,119.03c-1.05,1.91-2.18,3.77-3.11,5.73c-0.8,1.7-1.6,0.55-2.48,0.25c-1.05-0.38-1.18-0.85-0.59-1.87
	c1.76-3.14,3.44-6.28,5.08-9.46c0.59-1.15,1.13-1.06,2.1-0.51c3.44,1.87,3.49,1.87,2.52,5.64c-0.34,1.27-0.63,2.59-0.92,3.77
	c1.43-1.31,3.02-2.59,4.33-4.11c1.01-1.15,1.68-1.23,2.94-0.47c3.07,1.87,3.15,1.78,1.47,4.88c-1.3,2.46-2.77,4.92-3.95,7.42
	c-0.71,1.53-1.43,0.89-2.39,0.47c-1.22-0.55-1.26-1.15-0.63-2.21c1.13-1.91,2.14-3.9,2.81-6.23c-1.51,1.61-2.98,3.27-4.54,4.88
	c-0.71,0.76-1.18,1.7-2.69,0.85c-1.47-0.85-1.26-1.7-0.88-2.93c0.5-1.91,0.92-3.82,1.39-5.73
	C151.4,118.99,151.4,118.73,150.77,119.03z"/>
<path class="st4" d="M102.34,115.3c0.5,2.25,0.88,4.07,1.3,5.81c0.34,1.23-0.21,1.74-1.34,1.74c-0.88,0-2.14,1.36-2.52-0.76
	c-0.59-3.27-1.43-6.45-2.1-9.71c-0.17-0.72-0.88-1.82,0.13-2.21c1.22-0.42,2.56-1.44,3.91-0.17c1.85,1.74,3.7,3.44,5.84,5.47
	c-0.5-2.21-0.8-4.03-1.3-5.77c-0.55-1.82,0.8-1.74,1.81-1.99c1.01-0.25,1.81-0.47,2.06,1.06c0.55,3.14,1.39,6.19,1.97,9.29
	c0.17,0.81,1.26,2.04-0.17,2.54c-1.34,0.47-2.81,1.27-4.24-0.25C106.16,118.69,104.36,117.21,102.34,115.3z"/>
<path class="st3" d="M51.01,212.92c-1.97,0.89-3.49,1.44-4.83,2.21c-1.47,0.85-2.06,0.38-2.77-1.02c-0.76-1.48-0.34-2.04,1.01-2.59
	c2.86-1.19,5.59-2.54,8.44-3.73c0.67-0.3,1.55-1.31,2.14-0.42c0.71,1.15,1.93,2.37,0.97,4.03c-1.26,2.08-2.52,4.16-4.07,6.79
	c2.23-0.98,3.99-1.65,5.63-2.5c1.22-0.64,1.6,0.04,1.72,0.93c0.08,0.89,1.93,1.82-0.04,2.71c-3.4,1.48-6.76,3.01-10.12,4.54
	c-0.42,0.17-0.97,0.68-1.22-0.04c-0.42-1.31-1.89-2.37-0.84-4.07C48.27,217.63,49.49,215.51,51.01,212.92z"/>
<path class="st4" d="M125.82,260.59c0-2.12,0.08-3.86-0.04-5.6c-0.08-1.36,0.46-1.74,1.68-1.61c1.01,0.08,2.31-0.51,2.31,1.4
	c0.04,3.22,0.29,6.45,0.34,9.71c0,0.76,0.67,2.04-0.76,2.21c-1.3,0.17-2.73,0.81-3.78-0.72c-1.34-1.95-2.86-3.82-4.45-5.98
	c-0.38,2.12-0.13,3.99,0.04,5.81c0.21,2.04-1.3,1.19-2.1,1.4c-0.8,0.17-1.85,0.51-1.89-1.06c-0.08-3.73-0.29-7.46-0.46-11.2
	c-0.04-0.55-0.08-1.15,0.76-1.15c1.68,0,3.36-0.47,4.49,1.65C122.96,257.24,124.39,258.73,125.82,260.59z"/>
<path class="st4" d="M188.88,227.39c-1.3-0.08-2.65-0.17-3.99-0.25c-0.63-0.04-1.18,0.13-1.43,0.68c-0.38,0.76,0.46,0.89,0.84,1.23
	c0.46,0.42,1.01,0.81,1.55,1.06c1.72,0.72,1.6,1.61,0.67,3.01c-0.84,1.27-1.39,1.74-2.81,0.68c-2.73-1.99-5.55-3.82-8.36-5.64
	c-0.84-0.55-1.18-0.93-0.46-1.91c1.34-1.87,2.56-3.86,3.86-5.77c1.05-1.48,2.39-2.42,4.28-1.78c1.81,0.59,2.73,1.91,2.6,3.86
	c-0.08,0.89,0.13,1.02,1.01,0.81c1.01-0.21,2.1-0.17,3.11,0c0.84,0.13,2.14-0.51,2.48,0.76
	C192.49,225.1,189.88,227.56,188.88,227.39z"/>
<path class="st4" d="M197.44,211.1c0.04,4.28-2.9,7.8-6.51,7.89c-4.03,0.08-7.6-2.97-7.69-6.53c-0.13-4.11,2.98-7.89,6.51-7.97
	C194,204.4,197.4,207.37,197.44,211.1z"/>
<path class="st5" d="M165.52,238.88c-0.04-3.01,3.65-7.42,6.68-7.8c1.05-0.13,2.14-0.04,2.86,0.89c0.29,0.42-2.06,3.05-2.73,3.01
	c-1.39-0.08-2.27,0.55-2.86,1.7c-0.63,1.27-0.13,2.33,0.63,3.31c1.01,1.27,2.14,2.59,3.95,2.33c1.43-0.17,2.31-1.23,2.81-2.54
	c0.21-0.55,0.42-1.06-0.21-1.48c-0.59-0.42-0.92,0.08-1.22,0.47c-0.76,1.02-1.3,1.06-2.27,0.04c-1.09-1.1-0.21-1.53,0.42-2.12
	c0.17-0.17,0.29-0.3,0.46-0.47c0.97-0.89,1.93-2.71,2.94-2.5c1.51,0.34,2.48,2.12,3.61,3.39c0.5,0.55,0.21,1.02,0.08,1.57
	c-0.5,2.21-1.76,3.94-3.4,5.47c-2.02,1.82-4.24,2.63-6.93,1.48C167.7,244.43,165.6,241.51,165.52,238.88z"/>
<path class="st4" d="M45.92,206.39c-3.95,0-6.47-3.01-6.43-7.72c0.04-3.86,3.11-6.49,7.52-6.4c3.95,0.04,6.43,3.05,6.39,7.8
	C53.36,204.02,50.54,206.44,45.92,206.39z"/>
<path class="st3" d="M69.07,248.34c-2.35-0.38-4.45-2.29-5.84-4.92c-1.3-2.42-0.13-4.45,1.51-6.32c1.34-1.53,2.69-3.05,4.03-4.58
	c1.6-1.78,1.97,0.51,2.9,0.89c0.88,0.38,1.09,1.06,0.25,1.91c-1.55,1.61-3.02,3.35-4.49,5.05c-1.05,1.23-1.09,2.46,0.17,3.52
	c1.13,0.98,2.31,0.81,3.32-0.34c1.43-1.65,2.98-3.18,4.28-4.92c1.13-1.53,1.81-0.51,2.56,0.25c0.67,0.68,2.14,1.1,0.67,2.54
	c-1.6,1.57-2.98,3.35-4.49,5C72.81,247.66,71.46,248.42,69.07,248.34z"/>
<path class="st0" d="M760.88,244.92c-13.54,1.95-31.2,1.82-48.38-1.93c-22.48-5.11-37.5-24.31-38.48-50.84
	c-0.8-23.94,0.1-48.3,0.15-72.45c-0.2-21.45,16.54-10.13,25.51-12.3c8.97-2.16,19.39-2.05,18.85,12.57
	c-0.75,21.25-1.08,42.39-1.3,63.95c-0.14,16.27,4.31,31,24.96,30.4c20.22-0.49,24.58-14.27,24.2-30.85
	c-0.2-21.45,0.55-42.7,0.44-63.74c-0.2-21.45,15.91-10.86,25.08-12.19c8.32-1.13,19.22-4.64,18.65,11.74
	c-1.56,25.39,0.6,51.2-1.39,76.7C807.96,220.84,789.7,238.85,760.88,244.92z"/>
<path class="st4" d="M137.12,122.76c-1.3-0.13-2.94-0.55-4.45-1.31c-1.97-1.02-2.94-3.22-2.44-5.81c0.46-2.33,1.09-4.67,1.64-7
	c0.46-2.08,1.76-0.59,2.65-0.59c0.88,0,1.85,0.25,1.47,1.65c-0.55,2.04-1.05,4.07-1.55,6.15c-0.38,1.57-0.29,3.1,1.64,3.52
	c1.89,0.42,2.6-0.81,2.94-2.42c0.46-2.08,1.01-4.11,1.47-6.15c0.46-2.08,1.72-0.68,2.6-0.59c0.8,0.08,1.89,0,1.47,1.57
	c-0.71,2.42-1.09,4.96-1.85,7.38C142.04,121.53,139.94,122.85,137.12,122.76z"/>
<path class="st4" d="M195.3,202.11c-2.14-0.25-4.62-0.64-7.1-0.93c-1.72-0.21-0.92-1.4-0.88-2.25c0.04-0.85-0.29-2.21,1.39-1.95
	c2.06,0.3,4.16,0.59,6.22,0.85c2.31,0.25,3.23-0.34,3.36-2.04c0.13-2.04-1.18-2.46-2.77-2.63c-2.02-0.21-3.99-0.59-6.01-0.81
	c-1.01-0.08-1.51-0.51-1.05-1.48c0.46-0.93-0.76-2.97,1.51-2.76c2.48,0.25,5,0.55,7.44,1.1c2.98,0.68,4.41,2.84,4.16,5.89
	c-0.08,0.98-0.25,1.95-0.5,2.93C200.34,200.84,198.54,202.15,195.3,202.11z"/>
<path class="st6" d="M53.95,225.56c0.97,1.44,3.07,2.29,1.64,4.71c-0.42,0.72,0.42,1.74,1.22,2.25c0.5,0.3,1.13,0.34,1.55-0.08
	c0.76-0.76,0.29-1.57,0.04-2.37c-0.42-1.19-0.92-2.37-1.22-3.6c-0.34-1.48,0.04-2.84,1.34-3.73c1.26-0.89,2.65-0.98,3.95-0.17
	c2.14,1.36,3.53,3.35,4.16,5.89c0.25,1.02-0.21,1.91-0.8,2.76c-0.42,0.59-0.88,0.68-1.3,0c-0.67-1.06-2.27-1.74-1.3-3.56
	c0.38-0.76-0.42-1.57-1.13-2.08c-0.29-0.21-0.71-0.21-0.97,0.08c-0.63,0.72-0.17,1.44,0.13,2.16c0.5,1.36,1.26,2.67,1.3,4.2
	c0.13,3.05-2.35,5-5.25,4.11c-2.27-0.68-5.25-4.5-5.25-6.87C52.1,227.81,52.73,226.54,53.95,225.56z"/>
<path class="st3" d="M99.23,264.37c2.27-3.9,4.45-7.59,6.55-11.32c0.67-1.23,1.6-1.02,2.48-0.72c1.05,0.34,2.6-0.21,2.94,1.65
	c0.67,3.82,1.43,7.59,2.18,11.37c0.25,1.27,0,1.61-1.34,1.31c-1.39-0.3-2.98-0.04-2.98-2.29c0-0.76-4.62-1.57-4.87-0.81
	c-0.76,2.33-2.35,1.31-3.74,1.15C100.15,264.62,99.82,264.49,99.23,264.37z"/>
<path class="st3" d="M98.47,123.44c-1.22,0.64-2.18,1.1-3.07,1.61c-0.5,0.25-0.88,0.38-1.26-0.13c-0.63-0.93-1.39-1.44-2.35-0.59
	c-1.01,0.93-3.53,0.55-2.77,3.1c0.25,0.85-0.5,1.02-1.05,1.27c-0.8,0.38-1.64,0.76-2.6,1.23c-0.46-4.58-0.88-8.95-1.3-13.36
	c-0.17-1.78,1.55-1.53,2.44-2.12c0.59-0.42,1.34-1.1,2.23-0.25C91.88,117.25,95.07,120.26,98.47,123.44z"/>
<path class="st4" d="M119.14,117.59c2.44,0,4.33,0,6.18,0c0.97,0,1.72,0.08,1.72,1.48c0,1.4-0.71,1.44-1.72,1.4
	c-2.98-0.08-6.01-0.08-9.03-0.21c-0.67-0.04-1.76,0.47-2.02-0.42c-0.29-1.02-0.34-2.16,0.67-3.1c2.27-2.08,4.45-4.28,6.64-6.4
	c-0.08-0.21-0.13-0.42-0.21-0.64c-1.55,0-3.07-0.04-4.62,0c-1.05,0.04-1.81,0.04-1.76-1.48c0-1.57,0.88-1.44,1.89-1.44
	c2.65,0.08,5.29,0.08,7.98,0.21c0.67,0.04,1.72-0.47,1.93,0.59c0.21,0.93,0.29,1.95-0.55,2.76c-1.97,1.91-3.86,3.86-5.8,5.81
	C120.15,116.49,119.9,116.78,119.14,117.59z"/>
<path class="st3" d="M145.31,253.26c-1.47,0.68-2.6,2.16-4.58,0.68c-1.01-0.76-2.44-0.08-3.11,1.27c-0.71,1.44,0.17,4.88,1.51,5.81
	c1.18,0.85,2.27,0.42,3.23-0.38c0.25-0.21,0.5-0.55,0.5-0.89c0.25-2.59,2.14-1.44,3.44-1.53c0.67-0.04,0.63,0.64,0.55,1.1
	c-0.17,1.06-0.46,2.04-1.18,2.88c-1.55,1.91-5.67,3.01-8.11,2.12c-2.48-0.89-4.33-4.03-4.37-7.34c-0.04-2.88,1.47-4.92,4.41-5.98
	C141.15,249.78,143.46,250.41,145.31,253.26z"/>
<path class="st6" d="M45.29,176.62c3.4,0.04,5.5,1.36,6.39,4.07c1.01,3.14,0.25,6.57-1.85,8.1c-0.59,0.42-1.64,1.4-2.06,0.51
	c-0.42-0.93-1.34-2.42-0.13-3.39c1.09-0.93,1.72-1.87,1.18-3.27c-0.5-1.36-1.68-1.78-3.02-1.82c-0.55,0-1.13,0-1.68,0
	c-1.3,0.04-2.35,0.42-2.65,1.87c-0.29,1.31,0.08,2.33,1.3,3.01c2.02,1.06,0.34,2.33,0,3.35c-0.42,1.4-1.39,0.21-1.93-0.08
	c-2.44-1.44-3.23-4.45-2.18-8.1C39.41,178.11,41.76,176.58,45.29,176.62z"/>
<path class="st4" d="M188.2,178.62c-0.17-2.88,1.13-4.62,3.7-4.88c2.6-0.25,4.58,1.36,4.58,4.28c0,2.42,0.88,2.97,3.07,2.59
	c2.02-0.34,3.19,1.61,2.44,3.6c-0.25,0.64-0.76,0.51-1.22,0.55c-3.49,0.3-6.93,0.51-10.42,0.85c-1.22,0.13-1.81-0.13-1.81-1.48
	C188.54,182.26,188.33,180.44,188.2,178.62z"/>
<path class="st3" d="M93.06,251.73c-0.29-0.93-1.39-0.93-2.1-1.15c-1.6-0.42-1.72-1.15-1.13-2.54c0.46-1.1,0.97-1.1,1.89-0.76
	c3.07,1.19,6.09,2.37,9.2,3.39c1.43,0.47,1.13,1.15,0.8,2.21c-0.38,1.02-0.63,1.53-1.85,1.02c-2.73-1.06-2.73-0.93-3.78,1.95
	c-0.63,1.78-1.43,3.52-1.93,5.34c-0.59,2.04-1.72,0.72-2.56,0.47c-0.92-0.25-2.1-0.38-1.34-2.04c0.97-2.08,1.6-4.33,2.39-6.49
	C92.72,252.7,92.85,252.32,93.06,251.73z"/>
<path class="st3" d="M144.93,249.44c3.57-2.04,3.57-2.04,8.4,0.55c0.21-3.14,0.04-6.66,4.49-6.83c-0.17,1.4-0.25,2.93-0.55,4.41
	c-0.59,2.93-0.67,5.73,1.26,8.23c1.09,1.4,0.04,1.82-0.97,2.16c-0.88,0.3-2.02,1.99-2.69-0.21c-1.01-3.14-3.32-4.88-6.18-6.11
	C147.46,251.05,146.28,250.24,144.93,249.44z"/>
<path class="st3" d="M81.92,241.89c0.84,0.51,1.93,0.98,2.69,1.74c0.67,0.68-0.34,1.36-0.67,1.95c-1.01,1.91-2.06,3.82-3.23,5.64
	c-0.67,1.06-0.46,1.61,0.59,2.12c0.92,0.47,1.81,1.06,2.73,1.57c0.92,0.51,1.81,0.85,0.92,2.33c-0.8,1.31-1.39,1.31-2.56,0.55
	c-2.1-1.36-4.28-2.63-6.51-3.82c-1.01-0.55-1.01-1.02-0.46-1.91c1.81-3.01,3.53-6.06,5.29-9.08
	C80.91,242.53,81.04,241.85,81.92,241.89z"/>
<path class="st7" d="M150.77,119.03c0.08-0.47,0.17-0.93,0.71-1.1c0.29,0.59,0.08,1.1-0.29,1.57
	C151.07,119.33,150.9,119.2,150.77,119.03z"/>
<path class="st1" d="M95.32,189.9c-6.55-2.25-13.06-4.54-19.62-6.74c-1.34-0.47-2.18-1.27-2.18-2.71c0-1.36,0.8-2.21,2.06-2.59
	c0.34-0.08,0.63-0.25,0.97-0.38c10.42-4.03,20.84-8.02,31.3-12c15.5-5.94,31.04-11.92,46.54-17.9c1.26-0.51,2.52-0.98,3.74,0.08
	c1.3,1.1,0.92,2.5,0.59,3.9c-5.04,20.4-10.08,40.84-15.16,61.24c-1.26,5.13-5.25,6.57-9.49,3.35c-5.46-4.16-10.92-8.31-16.43-12.47
	c-0.55-0.08-1.09-0.21-1.55-0.59c-3.44-2.76-7.06-5.3-10.42-8.14c-0.34-0.81,0.08-1.4,0.67-1.87c3.15-2.46,5.59-5.73,8.82-8.1
	c0.29-0.21,0.59-0.38,0.92-0.47c1.51,0.13,2.14-0.64,2.06-2.12c0.59-1.7,2.23-2.29,3.32-3.44c5-5.13,10.46-9.75,15.54-14.84
	c0.38-0.38,0.76-0.81,1.18-0.98c-13.23,8.65-26.63,17.3-39.95,26.08C97.34,189.94,96.46,190.41,95.32,189.9z"/>
<path class="st8" d="M95.32,189.9c1.01,0.21,1.72-0.42,2.48-0.93c13.48-8.78,26.93-17.56,40.41-26.34c0.42-0.3,0.8-0.76,1.89-0.64
	c-7.39,7-14.53,13.83-21.68,20.61c-0.46,0.93-1.01,1.82-2.14,2.04c-3.28,3.05-6.55,6.06-9.83,9.12c-0.29,0.3-0.67,0.55-0.59,1.06
	c0.46,0.68,0.63,1.4,0.55,2.21c-0.59,5.64-0.34,11.32-1.05,16.96c-1.3,0.72-0.92-0.68-1.05-1.02c-2.65-7.04-5.21-14.08-7.73-21.16
	C96.33,191,95.91,190.41,95.32,189.9z"/>
<path class="st9" d="M105.41,213.99c-0.88-1.53-0.38-3.14-0.34-4.71c0.17-4.83,0.55-9.63,0.84-14.46c4.07,2.76,7.9,5.89,11.76,8.91
	C113.56,207.16,109.48,210.55,105.41,213.99z"/>
<path class="st10" d="M128.97,232.26c-0.21-0.04-0.38-0.04-0.59-0.08c-1.13-1.57-0.8-3.27-0.38-5c0.34-0.17,0.63-0.3,0.97-0.47
	c0.71,0.47,1.22,1.06,1.43,1.91c0.21,0.59,0.29,1.23,0.04,1.82C130.06,231.12,130.19,232.22,128.97,232.26z"/>
<path class="st11" d="M137.79,228.4c-0.17-0.85,0.46-1.19,1.09-1.65c0,1.78,0.84,3.48,0.25,5.26c-0.08,0.25-0.04,0.59-0.38,0.64
	c-0.29,0.04-0.59-0.13-0.55-0.47c0.21-1.4-0.71-1.19-1.51-1.19s-1.09-0.25-0.21-0.81C137.58,230.1,137.79,229.34,137.79,228.4z"/>
<path class="st12" d="M101.92,227.3c-0.04,1.44,1.18,1.7,2.06,2.29c1.55,1.06,1.43,1.95-0.92,3.18c1.72-1.48,0.92-2.04-0.08-2.59
	c-0.59-0.34-1.26-0.68-1.64-1.23c-0.38-0.59-0.63-1.48,0.63-1.61L101.92,227.3z"/>
<path class="st13" d="M134.56,232.48c-0.63,0.3-1.22,0.21-1.81,0.08c0.8-1.53,0.34-3.18,0.38-4.75c0-0.34-1.01-0.21-0.34-0.76
	c0.25-0.21,0.67-0.3,0.97-0.21c0.42,0.08,0.25,0.59,0.25,0.89c0.04,1.27,0.04,2.54,0,3.82
	C133.97,232.05,134.39,232.14,134.56,232.48z"/>
<path class="st14" d="M107.51,232.26c1.64-0.17,1.09-1.53,0.92-2.21c-0.59-2.16,0.46-1.7,1.64-1.23c0.04,0.08,0.08,0.17,0.13,0.25
	c-0.13,1.19,0.17,2.37-0.08,3.52c-0.88-0.04-1.72-0.08-2.56-0.08l-0.13-0.17L107.51,232.26z"/>
<path class="st15" d="M113.51,229.29c-0.46,1.91,0.42,2.67,2.52,2.5c-1.01,1.06-1.89,1.23-2.73,0.47c-0.97-0.85-1.05-1.91-0.29-2.97
	C113.18,229.08,113.39,229.08,113.51,229.29z"/>
<path class="st16" d="M107.51,232.26c-0.04,0.08-0.04,0.21,0,0.3c-1.09,0.34-1.72,0.3-1.22-1.19c0.21-0.55,0.17-1.36-0.13-1.82
	c-0.38-0.64-0.13-0.85,0.38-1.02c0.92-0.25,0.59,0.51,0.63,0.89C107.3,230.36,106.88,231.37,107.51,232.26z"/>
<path class="st17" d="M110.07,228.87c1.09-0.85,1.51-0.3,1.68,0.81c0.13,0.93-0.38,1.99,0.55,2.76c-0.55,0.42-1.22,0.17-1.81,0.21
	c-0.46-1.27,0.21-2.63-0.42-3.86L110.07,228.87z"/>
<path class="st18" d="M110.03,228.79c1.72,1.1,0.76,2.5,0.42,3.86h-0.17h-0.17C109.31,231.37,109.14,230.1,110.03,228.79z"/>
<path class="st19" d="M128.01,227.17c0.29,1.65-0.29,3.35,0.38,5C126.83,230.99,126.7,229.34,128.01,227.17z"/>
<path class="st20" d="M122.88,227.56c1.26-1.15,2.18-1.1,2.9-0.25c0.63,0.81,0.5,1.7-0.59,2.5
	C125.61,227.9,124.65,227.43,122.88,227.56z"/>
<path class="st17" d="M126.24,231.75c-0.8,1.53-2.23,0.64-3.57,0.98C123.51,230.69,125.23,232.48,126.24,231.75z"/>
<path class="st21" d="M137.79,228.4c0.8,0.55,0.55,1.4,0.21,1.91c-0.25,0.38-1.05,0.42-1.55-0.17
	C136.91,229.59,137.33,229,137.79,228.4z"/>
<path class="st22" d="M119.27,228.79c0.63,0.64,1.34,1.27-0.34,1.36c-0.59,0.04-1.43-0.42-1.68,0.64c0.21,0.47-0.04,0.59-0.42,0.64
	c-0.21-0.76-0.42-1.57,0.38-2.12c0.59,0.34,1.05-0.17,1.6-0.25C118.97,228.91,119.1,228.83,119.27,228.79z"/>
<path class="st11" d="M116.83,231.37c0.17-0.21,0.29-0.42,0.42-0.64c0.55,0.85,1.34,1.23,2.94,0.89
	C118.39,233.07,117.42,232.9,116.83,231.37z"/>
<path class="st23" d="M130.15,230.48c0-0.68,0-1.31,0-1.99c-0.17-0.47,0.04-0.55,0.42-0.47c0.55,1.1,0.46,2.25,0,3.35
	C129.77,231.37,130.02,230.91,130.15,230.48z"/>
<path class="st24" d="M113.51,229.29c-0.17,0-0.34,0-0.5-0.04c0.63-1.06,1.43-1.19,2.56-0.47
	C114.9,229.46,113.98,228.45,113.51,229.29z"/>
<path class="st25" d="M130.15,230.48c0.13,0.3,0.29,0.59,0.42,0.89c-0.29,0.68-0.5,1.57-1.55,0.89
	C129.94,232.05,129.69,231.03,130.15,230.48z"/>
<path class="st26" d="M119.18,229.42c-0.71,0.34-1.39,0.59-1.97-0.21c0.13-0.13,0.25-0.25,0.38-0.38
	C118.34,228.45,118.89,228.49,119.18,229.42z"/>
<path class="st27" d="M130.57,228.02c-0.13,0.17-0.29,0.34-0.42,0.47c-0.38-0.59-0.76-1.19-1.18-1.74
	C129.85,226.71,130.36,227.17,130.57,228.02z"/>
<path class="st28" d="M101.92,227.3l0.08,0.04c0.38-1.27,1.09-0.76,1.76-0.25c0.13,0.08,0.17,0.17,0.13,0.25
	c-0.04,0.08-0.08,0.13-0.13,0.13C103.18,226.96,102.51,227.47,101.92,227.3z"/>
<path class="st16" d="M101.25,230.91c0.46,0.55,0.71,0.93,1.01,1.27c-0.17,0.04-0.38,0.13-0.55,0.13
	C100.83,232.31,101.16,231.71,101.25,230.91z"/>
<path class="st19" d="M103.77,227.47c0.04-0.13,0.04-0.25,0-0.38c0.38-0.04,0.88-0.34,0.88,0.42c0,0.25-0.13,0.51-0.21,0.76
	C104.19,227.98,103.98,227.73,103.77,227.47z"/>
<path class="st29" d="M119.18,229.42c-0.42-0.55-0.97-0.68-1.6-0.59c0.55-0.72,1.09-0.64,1.72-0.08
	C119.27,229,119.23,229.21,119.18,229.42z"/>
<path class="st30" d="M182.62,223.99c-0.46,0.93-0.63,2.33-1.76,2.54c-0.5,0.08-2.02-0.51-1.76-1.57c0.29-1.02,0.88-2.33,2.27-2.42
	C182.07,222.55,182.49,223.23,182.62,223.99z"/>
<path class="st31" d="M194.17,212.03c0,1.61-1.18,2.8-2.73,2.84c-2.35,0.04-4.83-1.74-4.87-3.44c0-1.48,1.3-2.84,2.77-2.88
	C191.61,208.51,194.17,210.34,194.17,212.03z"/>
<path class="st32" d="M45.59,202.32c-1.76,0-2.98-1.15-2.98-2.84c0.04-1.87,2.1-3.22,4.7-3.18c1.76,0.04,3.02,1.27,3.02,2.88
	C50.29,201.05,48.36,202.32,45.59,202.32z"/>
<path class="st33" d="M108.14,256.48c0.17,1.15,0.34,2.29,0.5,3.44c0.04,0.34,0.13,0.76-0.38,0.76c-0.67,0-1.39-0.08-2.02-0.25
	c-0.46-0.13-0.25-0.55-0.08-0.85c0.5-1.06,1.01-2.12,1.55-3.14C107.8,256.44,107.97,256.48,108.14,256.48z"/>
<path class="st34" d="M88.22,118.56c0.46,0.51,1.01,0.98,1.39,1.53c0.34,0.51,1.43,0.72,0.88,1.53c-0.38,0.51-1.18,0.89-1.76,0.89
	c-1.01,0-0.5-1.06-0.76-1.61c-0.21-0.42-0.17-0.93-0.21-1.44C87.51,118.95,87.47,118.52,88.22,118.56z"/>
<path class="st35" d="M88.22,118.56c-0.46,0.13-0.38,0.59-0.5,0.93c-0.29-0.38-0.55-0.93-0.25-1.31
	C87.76,117.89,88.1,118.18,88.22,118.56z"/>
<path class="st36" d="M191.06,180.06c-0.04-1.15,0.08-2.08,1.3-2.12c1.3-0.04,1.51,0.89,1.68,1.95c0.21,1.61-1.05,1.1-1.76,1.27
	C191.14,181.5,190.98,180.78,191.06,180.06z"/>
<path class="st37" d="M116.29,184.68c0.59-0.81,1.26-1.53,2.14-2.04c0.5,0.81,0.59,1.57-0.5,1.91
	C117.42,184.72,116.92,186.12,116.29,184.68z"/>
<path class="st0" d="M372.66,247.48c-14.63,0.02-26.05-0.32-36.87,0.15c-6.01-0.07-10.21-0.73-11.33-7.35
	c-1.46-11.84-6.16-20.31-19.43-17.07c-14.07,3.84-36.12-12.06-41.27,15.53c-1.72,9.2-9.7,7.1-16.11,6.82
	c-9.41-0.32-19.23-0.84-30.64-1.18c17.79-45.27,34.94-88.34,52.31-131.82c7.03-17.55,22.12-6.74,33.36-8.01
	c7.63-1.11,18.08-3.79,22.34,8.49C340.1,157.11,355.79,200.98,372.66,247.48z"/>
<path class="st38" d="M299.09,151.6c1.92,7.04,4.84,14.09,5.75,21.11c0.72,6.42,10.05,13.75,0.97,18.65
	c-6.05,2.93-15.46,2.62-21.04-0.26c-9.56-4.93,0.35-12.42,0.63-18.83c0.06-5.01,2.92-9.58,4.99-14.57
	C290.47,151.69,292.12,147.51,299.09,151.6z"/>
<path class="st38" d="M299.09,151.6c-5-1.06-6.46,3.73-9.29,6.3c-0.94-5.02-0.66-11.43,3.97-13.58
	C297.99,142.97,299.74,147.4,299.09,151.6z"/>
<g>
</g>
<g>
</g>
<g>
</g>
<g>
</g>
<g>
</g>
<g>
</g>
</svg>
