<?xml version="1.0" encoding="utf-8"?>
<!-- Generator: Adobe Illustrator 26.0.0, SVG Export Plug-In . SVG Version: 6.00 Build 0)  -->
<svg version="1.1" id="Layer_1" xmlns="http://www.w3.org/2000/svg" xmlns:xlink="http://www.w3.org/1999/xlink" x="0px" y="0px"
	 viewBox="0 0 548.53 581.39" style="enable-background:new 0 0 548.53 581.39;" xml:space="preserve">
<style type="text/css">
	.st0{fill:#00A552;}
	.st1{fill:#FEFEFE;}
	.st2{fill:#FCFDFD;}
	.st3{fill:#FDFDFD;}
	.st4{fill:#FCFCFC;}
	.st5{fill:#FCFDFC;}
	.st6{fill:#5CBD93;}
	.st7{fill:#D9E7F1;}
	.st8{fill:#8FD0E6;}
	.st9{fill:#E8E8E8;}
	.st10{fill:#131313;}
	.st11{fill:#1B1B1B;}
	.st12{fill:#1A1A1A;}
	.st13{fill:#3B3B3B;}
	.st14{fill:#262626;}
	.st15{fill:#191919;}
	.st16{fill:#0D0D0D;}
	.st17{fill:#F3F3F3;}
	.st18{fill:#272727;}
	.st19{fill:#1C1C1C;}
	.st20{fill:#F9F9F9;}
	.st21{fill:#0B0B0B;}
	.st22{fill:#010101;}
	.st23{fill:#393939;}
	.st24{fill:#3F3F3F;}
	.st25{fill:#D0D0D0;}
	.st26{fill:#3A3A3A;}
	.st27{fill:#494949;}
	.st28{fill:#202020;}
	.st29{fill:#0DA959;}
	.st30{fill:#03A653;}
	.st31{fill:#04A653;}
	.st32{fill:#19AC61;}
	.st33{fill:#0FA95A;}
	.st34{fill:#8FC7AA;}
	.st35{fill:#0AA757;}
	.st36{fill:#08A658;}
</style>
<g>
	<g>
		<path class="st0" d="M483.39,372.42c0,115.35-93.76,209.13-208.95,208.97c-114.3-0.16-207.87-93.42-208.88-206.16
			c-1.02-113.74,89.63-211.32,208.8-211.67C389.69,163.22,483.4,257.07,483.39,372.42z"/>
		<path d="M74.95,252.3c6.08-9.84,12.55-19.08,9.1-32.26c-4.07,8.7-6.9,17.16-15.36,21.69c-0.62-1.36,0.26-2.26,0.72-2.99
			c4.06-6.43,4.5-12.94,1.19-19.85c-3.25-6.79-5.6-13.86-5.73-21.51c-0.11-6.37,1.22-12.28,5.73-17.02
			c2.08-2.19,1.52-3.35-0.62-5.12c-6.56-5.42-5.72-12.87,1.93-16.82c2.28-1.17,3.08-2.38,2.93-4.88
			c-0.43-7.14-0.77-14.29-0.83-21.44c-0.03-3.13-1.28-4.13-4.21-4.86c-21.74-5.42-43.43-11.07-65.14-16.65
			c-1.28-0.33-2.54-0.73-4.66-1.35c16-6.37,31.24-12.46,46.5-18.5c75.58-29.93,151.18-59.83,226.74-89.8
			c2.6-1.03,4.82-1.32,7.55-0.23c87.7,34.94,175.44,69.8,263.16,104.7c1.46,0.58,3.22,0.69,4.59,2.59
			c-18.04,4.55-35.81,9.05-53.58,13.52c-28.18,7.09-56.36,14.2-84.56,21.2c-3.02,0.75-4.13,1.99-4.12,5.33
			c0.06,15.65-0.24,31.3-0.41,46.96c-0.01,0.78,0,1.55,0,2.73c-86.57-63.44-172.69-59.8-259.42-0.56c0-6.99-0.06-14.07,0.01-21.15
			c0.11-9.99,0.2-19.98,0.55-29.96c0.1-2.82-0.95-3.57-3.51-3.99c-11.23-1.84-22.43-3.89-35.19-6.13c8.23-3.22,15.12-5.91,22-8.61
			c47.26-18.57,94.48-37.22,141.82-55.57c4.65-1.8,6.9-3.8,5.97-8.79c-0.24-1.28-0.04-2.64-0.04-4.34
			c-4.54,0.61-8.25,2.78-12.1,4.34c-55.79,22.71-111.54,45.49-167.27,68.35c-3.16,1.29-6.08,1.3-9.18,0.34
			c-2.55-0.79-3.56,0.06-3.6,2.83c-0.12,6.82-0.5,13.63-0.81,20.44c-0.09,1.9,0.32,3.26,1.99,4.65c5.41,4.51,5.75,9.2,1.2,14.61
			c-1.8,2.14-2.54,4.04-0.02,5.85c11.62,8.38,13.35,20,10.72,32.92c-2.93,14.42-10.18,26.56-20.26,37.11
			C77.86,250.98,77.06,252.15,74.95,252.3z"/>
		<path class="st1" d="M142.4,372.43c-0.22-72.46,59.76-132.37,132.27-132.1c72.31,0.27,131.91,59.34,132.05,130.89
			c0.14,73.63-58.92,133.25-132.09,133.33C201.87,504.63,142.62,445.42,142.4,372.43z"/>
		<path class="st2" d="M347.9,216.5c-2.49,4.5-5.2,8.89-7.39,13.52c-1.88,3.97-3.8,1.31-5.87,0.56c-2.45-0.88-2.77-2.04-1.44-4.37
			c4.19-7.35,8.24-14.78,12.11-22.31c1.38-2.69,2.72-2.46,4.98-1.24c8.25,4.43,8.28,4.37,6.03,13.34c-0.76,3.04-1.49,6.09-2.19,8.94
			c3.37-3.12,7.17-6.1,10.26-9.69c2.35-2.73,3.95-2.89,7-1.08c7.34,4.37,7.47,4.18,3.52,11.51c-3.15,5.84-6.59,11.55-9.41,17.54
			c-1.69,3.58-3.36,2.14-5.7,1.12c-2.88-1.27-3.04-2.68-1.5-5.25c2.72-4.51,5.1-9.23,6.73-14.67c-3.59,3.84-7.15,7.69-10.76,11.5
			c-1.72,1.81-2.84,4.02-6.42,2.03c-3.54-1.98-2.96-3.97-2.15-6.86c1.25-4.46,2.19-9.02,3.26-13.53
			C349.41,216.39,349.35,215.75,347.9,216.5z"/>
		<path class="st3" d="M232.57,207.74c1.21,5.34,2.05,9.55,3.13,13.69c0.77,2.95-0.49,4.07-3.19,4.05
			c-2.13-0.01-5.05,3.19-5.99-1.82c-1.44-7.67-3.39-15.23-4.99-22.87c-0.36-1.73-2.15-4.31,0.33-5.17c2.85-0.99,6.06-3.35,9.26-0.36
			c4.36,4.07,8.76,8.09,13.95,12.88c-1.18-5.25-1.9-9.48-3.12-13.55c-1.3-4.32,1.86-4.1,4.29-4.74c2.37-0.62,4.3-1.14,4.94,2.54
			c1.28,7.35,3.28,14.57,4.68,21.9c0.37,1.92,3.04,4.8-0.35,5.97c-3.17,1.1-6.73,2.97-10.11-0.65
			C241.7,215.66,237.45,212.21,232.57,207.74z"/>
		<path class="st2" d="M110.41,437.93c-4.66,2.09-8.26,3.38-11.54,5.25c-3.5,1.99-4.91,0.89-6.59-2.44
			c-1.78-3.53-0.81-4.8,2.45-6.13c6.76-2.78,13.34-5.99,20.08-8.82c1.6-0.67,3.74-3.13,5.09-1.01c1.72,2.69,4.59,5.62,2.26,9.46
			c-2.98,4.92-5.98,9.82-9.74,15.99c5.33-2.32,9.47-3.87,13.36-5.91c2.85-1.49,3.81,0.09,4.05,2.18c0.23,2.06,4.61,4.31-0.13,6.37
			c-8.06,3.5-16.05,7.15-24.07,10.72c-0.97,0.43-2.3,1.61-2.88-0.14c-1.02-3.09-4.5-5.63-1.99-9.57
			C103.88,448.98,106.79,443.95,110.41,437.93z"/>
		<path class="st3" d="M288.53,550.34c0-4.96,0.23-9.09-0.07-13.18c-0.24-3.25,1.06-4.07,3.98-3.81c2.43,0.22,5.46-1.23,5.52,3.33
			c0.1,7.63,0.72,15.25,0.84,22.89c0.03,1.78,1.64,4.8-1.78,5.24c-3.08,0.4-6.49,1.87-9.04-1.73c-3.25-4.59-6.75-8.99-10.59-14.06
			c-0.93,5.02-0.33,9.42,0.11,13.71c0.49,4.8-3.09,2.84-4.95,3.29c-1.85,0.44-4.39,1.19-4.49-2.54c-0.24-8.79-0.73-17.58-1.12-26.37
			c-0.06-1.35-0.22-2.71,1.84-2.73c4.04-0.04,8.04-1.08,10.68,3.87C281.68,542.42,285.15,545.93,288.53,550.34z"/>
		<path class="st3" d="M438.65,472.03c-3.15-0.2-6.31-0.39-9.46-0.6c-1.45-0.1-2.77,0.32-3.39,1.61c-0.89,1.84,1.09,2.1,1.98,2.85
			c1.14,0.96,2.38,1.9,3.74,2.46c4.09,1.69,3.77,3.81,1.56,7.12c-1.99,2.99-3.32,4.08-6.69,1.62c-6.45-4.7-13.21-8.97-19.93-13.27
			c-2.02-1.29-2.78-2.23-1.1-4.52c3.24-4.42,6.06-9.15,9.2-13.65c2.47-3.54,5.72-5.7,10.25-4.21c4.3,1.42,6.55,4.45,6.16,9.08
			c-0.17,2.06,0.31,2.35,2.4,1.94c2.39-0.47,4.99-0.38,7.43-0.02c2.03,0.29,5.11-1.24,5.87,1.8
			C447.24,466.62,441.01,472.37,438.65,472.03z"/>
		<path class="st3" d="M458.98,433.62c0.07,10.14-6.86,18.43-15.55,18.6c-9.56,0.18-18.07-6.98-18.31-15.42
			c-0.28-9.7,7.08-18.6,15.52-18.76C450.76,417.83,458.92,424.77,458.98,433.62z"/>
		<path class="st4" d="M383.05,499.13c-0.15-7.13,8.74-17.52,15.92-18.41c2.49-0.31,5.15-0.15,6.78,2.09c0.73,1-4.88,7.18-6.5,7.06
			c-3.28-0.23-5.36,1.28-6.76,4.04c-1.5,2.97-0.34,5.55,1.45,7.84c2.38,3.05,5.09,6.07,9.42,5.51c3.37-0.44,5.48-2.86,6.69-6.04
			c0.5-1.31,0.95-2.54-0.49-3.52c-1.42-0.96-2.22,0.24-2.87,1.08c-1.82,2.35-3.12,2.45-5.38,0.12c-2.57-2.65-0.47-3.59,0.97-5.03
			c0.35-0.35,0.69-0.72,1.06-1.06c2.34-2.11,4.6-6.44,6.95-5.9c3.63,0.84,5.88,5.05,8.61,7.95c1.2,1.27,0.49,2.37,0.2,3.66
			c-1.21,5.25-4.21,9.34-8.12,12.85c-4.81,4.31-10.13,6.24-16.47,3.52C388.25,512.22,383.18,505.3,383.05,499.13z"/>
		<path class="st3" d="M98.28,422.55c-9.43-0.04-15.39-7.13-15.32-18.24c0.05-9.09,7.36-15.26,17.94-15.15
			c9.4,0.1,15.27,7.21,15.17,18.37C115.98,416.92,109.26,422.6,98.28,422.55z"/>
		<path class="st2" d="M153.37,521.4c-5.61-0.87-10.56-5.38-13.91-11.58c-3.1-5.73-0.31-10.54,3.58-14.86
			c3.22-3.58,6.42-7.2,9.63-10.8c3.75-4.2,4.71,1.17,6.87,2.15c2.07,0.93,2.63,2.46,0.55,4.55c-3.74,3.77-7.16,7.86-10.68,11.85
			c-2.52,2.85-2.59,5.79,0.36,8.27c2.74,2.31,5.49,1.89,7.88-0.81c3.42-3.85,7.14-7.49,10.23-11.59c2.73-3.63,4.31-1.23,6.1,0.58
			c1.61,1.63,5.05,2.63,1.57,5.99c-3.82,3.68-7.1,7.92-10.72,11.82C162.26,519.75,159.15,521.56,153.37,521.4z"/>
		<path class="st3" d="M315.4,225.27c-3.11-0.34-7-1.29-10.56-3.11c-4.74-2.43-6.98-7.61-5.79-13.68
			c1.08-5.54,2.62-10.98,3.89-16.49c1.13-4.88,4.2-1.43,6.33-1.39c2.14,0.04,4.4,0.55,3.47,3.87c-1.34,4.8-2.53,9.64-3.66,14.49
			c-0.87,3.71-0.71,7.26,3.86,8.3c4.53,1.04,6.18-1.88,7.03-5.74c1.07-4.86,2.43-9.66,3.51-14.52c1.09-4.9,4.08-1.61,6.2-1.42
			c1.94,0.17,4.53,0,3.46,3.68c-1.67,5.73-2.65,11.67-4.35,17.39C327.09,222.36,322.15,225.54,315.4,225.27z"/>
		<path class="st3" d="M453.92,412.44c-5.07-0.65-10.98-1.49-16.91-2.16c-4.12-0.46-2.25-3.34-2.1-5.28
			c0.15-2.02-0.69-5.17,3.32-4.61c4.93,0.69,9.85,1.41,14.8,1.98c5.51,0.62,7.71-0.76,8-4.84c0.34-4.77-2.77-5.76-6.62-6.17
			c-4.78-0.52-9.52-1.38-14.3-1.89c-2.35-0.25-3.62-1.19-2.54-3.45c1.07-2.23-1.83-6.99,3.59-6.47c5.93,0.58,11.89,1.34,17.7,2.63
			c7.1,1.57,10.52,6.67,9.94,13.93c-0.18,2.31-0.59,4.63-1.19,6.86C465.87,409.39,461.56,412.51,453.92,412.44z"/>
		<path class="st5" d="M117.44,467.68c2.26,3.4,7.34,5.42,3.9,11.14c-1.02,1.7,0.96,4.09,2.88,5.32c1.16,0.74,2.66,0.84,3.73-0.2
			c1.81-1.75,0.74-3.69,0.09-5.57c-0.99-2.82-2.19-5.59-2.88-8.48c-0.83-3.49,0.11-6.66,3.16-8.84c3-2.14,6.34-2.29,9.4-0.37
			c5.14,3.22,8.44,7.94,9.86,13.85c0.58,2.43-0.49,4.55-1.86,6.51c-1.01,1.44-2.07,1.6-3.06,0.04c-1.61-2.54-5.36-4.1-3.06-8.41
			c0.94-1.76-1.01-3.68-2.69-4.88c-0.7-0.5-1.69-0.54-2.29,0.16c-1.52,1.74-0.35,3.36,0.3,5.06c1.23,3.24,2.98,6.31,3.13,9.92
			c0.31,7.19-5.58,11.8-12.51,9.71c-5.4-1.63-12.47-10.6-12.52-16.21C113,472.96,114.46,470.01,117.44,467.68z"/>
		<path class="st2" d="M225.16,559.15c5.4-9.2,10.62-17.86,15.56-26.68c1.6-2.87,3.82-2.38,5.93-1.72c2.53,0.79,6.24-0.55,7.02,3.9
			c1.58,8.98,3.39,17.91,5.22,26.84c0.61,2.96-0.05,3.78-3.18,3.1c-3.34-0.73-7.06-0.14-7.06-5.44c0-1.84-11.01-3.68-11.59-1.94
			c-1.82,5.46-5.57,3.1-8.89,2.68C227.37,559.78,226.58,559.5,225.16,559.15z"/>
		<path class="st2" d="M223.37,226.89c-2.92,1.49-5.16,2.56-7.34,3.77c-1.16,0.65-2.15,0.94-2.99-0.34
			c-1.47-2.23-3.3-3.45-5.65-1.37c-2.45,2.17-8.37,1.27-6.55,7.34c0.61,2.02-1.21,2.42-2.53,3.04c-1.93,0.91-3.87,1.8-6.24,2.89
			c-1.05-10.75-2.11-21.12-3.07-31.48c-0.39-4.17,3.72-3.56,5.8-5.03c1.45-1.02,3.19-2.6,5.3-0.61
			C207.68,212.29,215.33,219.39,223.37,226.89z"/>
		<path class="st3" d="M272.63,213.1c5.83,0,10.26-0.03,14.7,0.01c2.26,0.02,4.1,0.18,4.06,3.48c-0.04,3.28-1.68,3.36-4.08,3.3
			c-7.15-0.19-14.31-0.21-21.46-0.46c-1.65-0.06-4.21,1.15-4.81-1.01c-0.66-2.4-0.82-5.07,1.64-7.29
			c5.42-4.88,10.56-10.08,15.82-15.15c-0.16-0.5-0.32-0.99-0.49-1.49c-3.67,0-7.34-0.08-11,0.03c-2.53,0.08-4.29,0.13-4.24-3.49
			c0.05-3.74,2.08-3.42,4.47-3.36c6.32,0.17,12.64,0.24,18.95,0.49c1.63,0.07,4.07-1.08,4.64,1.41c0.5,2.16,0.72,4.55-1.32,6.5
			c-4.68,4.49-9.23,9.13-13.82,13.72C275.01,210.49,274.37,211.23,272.63,213.1z"/>
		<path class="st2" d="M334.9,533.02c-3.48,1.62-6.18,5.1-10.93,1.61c-2.41-1.77-5.82-0.18-7.43,3.02
			c-1.71,3.41,0.4,11.46,3.59,13.67c2.82,1.96,5.38,1.02,7.72-0.9c0.59-0.49,1.16-1.35,1.23-2.09c0.59-6.12,5.09-3.41,8.18-3.57
			c1.65-0.09,1.54,1.51,1.34,2.63c-0.43,2.46-1.14,4.83-2.78,6.84c-3.66,4.48-13.48,7.07-19.31,5.02
			c-5.89-2.07-10.33-9.45-10.43-17.33c-0.08-6.77,3.5-11.57,10.49-14.08C324.96,524.83,330.45,526.34,334.9,533.02z"/>
		<path class="st5" d="M96.83,352.33c8.13,0.08,13.06,3.2,15.17,9.6c2.43,7.36,0.62,15.55-4.4,19.13c-1.45,1.03-3.89,3.32-4.87,1.22
			c-1.02-2.2-3.15-5.66-0.31-8.04c2.62-2.19,4.07-4.42,2.78-7.67c-1.25-3.18-4.01-4.22-7.24-4.26c-1.33-0.02-2.66-0.03-3.99,0
			c-3.07,0.07-5.58,0.99-6.32,4.41c-0.67,3.11,0.15,5.53,3.14,7.07c4.81,2.48,0.76,5.53,0.03,7.88c-1.03,3.32-3.32,0.53-4.64-0.23
			c-5.81-3.37-7.66-10.54-5.25-19.11C82.79,355.76,88.38,352.25,96.83,352.33z"/>
		<path class="st3" d="M437.04,356.97c-0.43-6.84,2.71-10.87,8.84-11.46c6.16-0.59,10.85,3.21,10.87,10.08
			c0.02,5.73,2.06,6.95,7.3,6.08c4.79-0.8,7.64,3.79,5.77,8.46c-0.61,1.52-1.8,1.22-2.88,1.3c-8.27,0.66-16.55,1.21-24.81,1.98
			c-2.85,0.27-4.27-0.27-4.28-3.53C437.84,365.58,437.34,361.28,437.04,356.97z"/>
		<path class="st2" d="M210.5,529.42c-0.74-2.18-3.26-2.21-5.01-2.68c-3.78-1.01-4.05-2.71-2.66-6.05c1.09-2.63,2.29-2.62,4.5-1.77
			c7.27,2.77,14.53,5.59,21.91,8.02c3.4,1.12,2.74,2.73,1.86,5.2c-0.85,2.39-1.46,3.56-4.44,2.43c-6.47-2.45-6.53-2.24-9.01,4.57
			c-1.53,4.2-3.36,8.3-4.63,12.57c-1.42,4.8-4.07,1.68-6.15,1.12c-2.24-0.6-5-0.89-3.2-4.84c2.26-4.94,3.81-10.22,5.66-15.35
			C209.67,531.71,210.01,530.78,210.5,529.42z"/>
		<path class="st2" d="M333.96,523.99c8.5-4.84,8.5-4.84,20.05,1.27c0.55-7.42,0.07-15.67,10.67-16.1
			c-0.39,3.27-0.61,6.89-1.31,10.41c-1.36,6.87-1.56,13.5,3.03,19.37c2.56,3.27,0.13,4.35-2.27,5.13c-2.1,0.68-4.75,4.65-6.42-0.48
			c-2.4-7.39-7.92-11.47-14.7-14.44C339.98,527.82,337.23,525.88,333.96,523.99z"/>
		<path class="st2" d="M183.96,506.16c2.02,1.24,4.63,2.28,6.41,4.12c1.59,1.65-0.82,3.2-1.58,4.64c-2.4,4.54-4.93,9.03-7.74,13.33
			c-1.64,2.51-1.05,3.75,1.38,4.95c2.22,1.1,4.31,2.47,6.48,3.68c2.22,1.23,4.3,2.01,2.16,5.47c-1.92,3.11-3.27,3.14-6.07,1.34
			c-5.01-3.22-10.21-6.17-15.46-8.98c-2.37-1.27-2.43-2.39-1.13-4.52c4.29-7.08,8.39-14.28,12.6-21.42
			C181.64,507.7,181.88,506.15,183.96,506.16z"/>
		<path class="st6" d="M347.9,216.5c0.22-1.11,0.44-2.2,1.74-2.65c0.67,1.44,0.19,2.61-0.69,3.7
			C348.6,217.2,348.25,216.85,347.9,216.5z"/>
		<path class="st0" d="M215.94,383.62c-15.55-5.31-31.09-10.66-46.67-15.87c-3.24-1.09-5.25-2.98-5.25-6.39
			c0-3.2,1.89-5.19,4.94-6.11c0.79-0.24,1.54-0.59,2.31-0.89c24.82-9.45,49.64-18.89,74.46-28.33
			c36.94-14.05,73.89-28.09,110.83-42.17c3.04-1.16,5.98-2.3,8.9,0.16c3.15,2.65,2.21,5.89,1.39,9.19
			c-12.05,48.15-24.05,96.3-36.11,144.45c-3.04,12.15-12.49,15.46-22.58,7.92c-13.05-9.75-26.05-19.58-39.08-29.38
			c-1.32-0.22-2.6-0.54-3.68-1.41c-8.16-6.55-16.81-12.46-24.81-19.22c-0.76-1.91,0.25-3.33,1.56-4.35
			c7.48-5.84,13.33-13.48,21.02-19.08c0.68-0.49,1.37-0.93,2.21-1.08c3.61,0.31,5.11-1.48,4.91-4.96c1.35-3.95,5.28-5.39,7.92-8.08
			c11.88-12.1,24.91-23,36.95-34.95c0.91-0.91,1.81-1.94,2.84-2.29c-31.55,20.4-63.44,40.78-95.12,61.5
			C220.69,383.72,218.56,384.78,215.94,383.62z"/>
		<path class="st7" d="M215.94,383.62c2.4,0.49,4.06-1.01,5.86-2.17c32.07-20.71,64.13-41.42,96.22-62.09
			c1.04-0.67,1.93-1.83,4.51-1.52c-17.56,16.54-34.59,32.58-51.62,48.61c-1.08,2.24-2.38,4.26-5.07,4.81
			c-7.81,7.16-15.61,14.32-23.42,21.48c-0.73,0.67-1.56,1.27-1.35,2.45c1.07,1.57,1.5,3.34,1.3,5.19
			c-1.39,13.29-0.76,26.71-2.49,39.98c-3.12,1.67-2.23-1.64-2.53-2.44C231.1,421.33,225,404.68,218.99,388
			C218.33,386.18,217.31,384.83,215.94,383.62z"/>
		<path class="st8" d="M239.87,440.36c-2.08-3.56-0.95-7.44-0.81-11.1c0.43-11.37,1.3-22.71,1.99-34.07
			c9.69,6.54,18.8,13.85,28.02,21.02C259.34,424.26,249.61,432.31,239.87,440.36z"/>
		<path class="st9" d="M296.04,483.46c-0.46-0.06-0.93-0.11-1.39-0.17c-2.71-3.73-1.88-7.74-0.92-11.76
			c0.76-0.35,1.51-0.71,2.27-1.06c1.68,1.06,2.91,2.47,3.4,4.45c0.46,1.43,0.68,2.87,0.07,4.31
			C298.56,480.83,298.89,483.43,296.04,483.46z"/>
		<path class="st10" d="M316.99,474.39c-0.35-1.97,1.15-2.78,2.59-3.91c-0.01,4.22,1.95,8.18,0.63,12.39
			c-0.19,0.61-0.11,1.37-0.91,1.48c-0.71,0.1-1.4-0.29-1.26-1.08c0.55-3.28-1.67-2.8-3.64-2.84c-1.97-0.04-2.63-0.59-0.55-1.87
			C316.49,478.37,316.98,476.56,316.99,474.39z"/>
		<path class="st11" d="M231.6,471.81c-0.13,3.41,2.82,4.02,4.9,5.44c3.7,2.51,3.44,4.63-2.17,7.48c4.12-3.45,2.19-4.77-0.19-6.12
			c-1.41-0.8-3.04-1.61-3.88-2.88c-0.94-1.43-1.53-3.55,1.51-3.79L231.6,471.81z"/>
		<path class="st12" d="M309.26,484.05c-1.47,0.71-2.9,0.5-4.32,0.19c1.91-3.65,0.76-7.49,0.91-11.22c0.03-0.78-2.39-0.53-0.78-1.8
			c0.57-0.45,1.58-0.7,2.28-0.53c1.04,0.24,0.61,1.36,0.62,2.1c0.06,2.99,0.14,5.99-0.02,8.98
			C307.87,482.95,308.94,483.17,309.26,484.05z"/>
		<path class="st13" d="M244.88,483.51c3.85-0.36,2.62-3.57,2.19-5.17c-1.39-5.12,1.15-3.95,3.93-2.87
			c0.09,0.22,0.18,0.44,0.27,0.65c-0.32,2.77,0.4,5.57-0.25,8.34c-2.05-0.08-4.09-0.17-6.14-0.25l-0.29-0.35L244.88,483.51z"/>
		<path class="st14" d="M259.23,476.51c-1.08,4.49,1.04,6.29,5.95,5.87c-2.39,2.49-4.45,2.91-6.5,1.07
			c-2.26-2.03-2.45-4.48-0.69-7.02C258.43,476.01,258.85,476.03,259.23,476.51z"/>
		<path class="st15" d="M244.88,483.51c-0.07,0.23-0.07,0.47-0.01,0.7c-2.62,0.78-4.15,0.68-2.89-2.8c0.46-1.27,0.4-3.17-0.26-4.28
			c-0.92-1.55-0.32-2.01,0.86-2.35c2.16-0.62,1.36,1.18,1.48,2.06C244.39,479.05,243.44,481.42,244.88,483.51z"/>
		<path class="st16" d="M250.99,475.47c2.61-2.05,3.58-0.69,3.97,1.9c0.33,2.19-0.88,4.67,1.25,6.55c-1.34,0.97-2.87,0.36-4.31,0.51
			c-1.05-2.95,0.48-6.17-0.97-9.08L250.99,475.47z"/>
		<path class="st17" d="M250.94,475.34c4.06,2.63,1.82,5.93,0.97,9.08l-0.44,0.05l-0.45-0.01
			C249.24,481.43,248.76,478.4,250.94,475.34z"/>
		<path class="st18" d="M293.73,471.53c0.68,3.89-0.72,7.94,0.92,11.76C290.88,480.55,290.57,476.6,293.73,471.53z"/>
		<path class="st19" d="M281.5,472.4c2.97-2.71,5.21-2.64,6.88-0.56c1.5,1.86,1.25,3.97-1.43,5.89
			C288.03,473.22,285.7,472.09,281.5,472.4z"/>
		<path class="st16" d="M289.53,482.33c-1.92,3.64-5.3,1.45-8.47,2.26C283.04,479.84,287.09,483.98,289.53,482.33z"/>
		<path class="st20" d="M316.99,474.39c1.85,1.31,1.33,3.32,0.53,4.54c-0.61,0.93-2.54,0.98-3.67-0.36
			C314.89,477.17,315.94,475.78,316.99,474.39z"/>
		<path class="st21" d="M272.94,475.28c1.54,1.53,3.17,3.01-0.83,3.21c-1.41,0.07-3.41-1.03-4.01,1.45
			c0.46,1.07-0.09,1.41-1.05,1.46c-0.48-1.82-1.03-3.66,0.94-5.03c1.41,0.77,2.53-0.39,3.8-0.56
			C272.16,475.6,272.54,475.43,272.94,475.28z"/>
		<path class="st10" d="M267.06,481.4c0.35-0.49,0.7-0.98,1.05-1.46c1.32,2,3.22,2.93,7,2.11
			C270.77,485.44,268.55,484.96,267.06,481.4z"/>
		<path class="st22" d="M298.79,479.29c-0.02-1.56-0.03-3.12-0.05-4.68c-0.43-1.08,0.11-1.27,1.03-1.13
			c1.28,2.63,1.13,5.26,0.01,7.89C297.91,481.41,298.45,480.3,298.79,479.29z"/>
		<path class="st23" d="M259.23,476.51c-0.41-0.03-0.83-0.05-1.24-0.08c1.53-2.47,3.43-2.79,6.14-1.07
			C262.45,476.93,260.34,474.54,259.23,476.51z"/>
		<path class="st24" d="M298.79,479.29c0.33,0.69,0.66,1.38,0.99,2.08c-0.74,1.61-1.18,3.74-3.74,2.09
			C298.29,482.95,297.72,480.57,298.79,479.29z"/>
		<path class="st25" d="M272.7,476.84c-1.66,0.81-3.31,1.4-4.71-0.47c0.3-0.3,0.59-0.6,0.89-0.9
			C270.66,474.52,272.05,474.63,272.7,476.84z"/>
		<path class="st26" d="M299.77,473.48c-0.34,0.38-0.69,0.75-1.03,1.13c-0.92-1.38-1.83-2.76-2.75-4.13
			C298.11,470.4,299.28,471.52,299.77,473.48z"/>
		<path class="st27" d="M231.6,471.81c0,0,0.18,0.13,0.18,0.13c0.95-3.04,2.56-1.82,4.17-0.65c0.3,0.2,0.41,0.4,0.31,0.6
			c-0.1,0.2-0.19,0.31-0.29,0.31C234.6,471.05,233.03,472.19,231.6,471.81z"/>
		<path class="st15" d="M230.02,480.28c1.05,1.34,1.71,2.18,2.36,3.02c-0.44,0.1-0.88,0.29-1.31,0.29
			C229.02,483.59,229.83,482.22,230.02,480.28z"/>
		<path class="st18" d="M235.96,472.19c0.1-0.3,0.09-0.61-0.02-0.91c0.88-0.06,2.11-0.76,2.13,0.95c0.01,0.59-0.34,1.18-0.52,1.77
			C237.02,473.41,236.49,472.8,235.96,472.19z"/>
		<path class="st28" d="M272.7,476.84c-0.96-1.34-2.29-1.62-3.82-1.36c1.27-1.72,2.64-1.49,4.06-0.19
			C272.86,475.8,272.78,476.32,272.7,476.84z"/>
		<path class="st29" d="M423.67,464.05c-1.13,2.25-1.47,5.54-4.25,6.03c-1.16,0.21-4.82-1.23-4.16-3.66
			c0.66-2.44,2.08-5.47,5.36-5.71C422.43,460.58,423.41,462.16,423.67,464.05z"/>
		<path class="st30" d="M451.2,435.8c-0.01,3.82-2.75,6.64-6.54,6.72c-5.58,0.12-11.52-4.06-11.58-8.14
			c-0.05-3.51,3.07-6.73,6.6-6.81C445.15,427.45,451.21,431.78,451.2,435.8z"/>
		<path class="st31" d="M97.5,412.94c-4.23,0.01-7.14-2.73-7.06-6.66c0.08-4.35,4.98-7.62,11.16-7.46c4.16,0.11,7.16,2.95,7.15,6.76
			C108.73,409.87,104.05,412.93,97.5,412.94z"/>
		<path class="st32" d="M246.35,540.64c0.41,2.7,0.83,5.39,1.23,8.09c0.12,0.81,0.26,1.83-0.91,1.8c-1.62-0.04-3.29-0.18-4.84-0.62
			c-1.06-0.3-0.56-1.3-0.2-2.03c1.22-2.47,2.44-4.95,3.67-7.42C245.64,540.52,246,540.58,246.35,540.64z"/>
		<path class="st33" d="M199,215.36c1.11,1.19,2.38,2.28,3.28,3.61c0.79,1.17,3.45,1.7,2.06,3.6c-0.85,1.16-2.79,2.1-4.25,2.11
			c-2.35,0.02-1.17-2.48-1.77-3.77c-0.46-0.99-0.35-2.23-0.5-3.37C197.32,216.33,197.21,215.34,199,215.36z"/>
		<path class="st34" d="M199,215.36c-1.14,0.33-0.87,1.41-1.17,2.19c-0.72-0.95-1.34-2.16-0.55-3.09
			C197.87,213.76,198.68,214.52,199,215.36z"/>
		<path class="st35" d="M443.79,360.38c-0.09-2.68,0.19-4.9,3.13-5.01c3.07-0.12,3.65,2.1,3.98,4.62c0.49,3.78-2.51,2.58-4.23,3.05
			C444.02,363.76,443.58,362.13,443.79,360.38z"/>
		<path class="st36" d="M265.83,371.26c1.41-1.9,3.05-3.56,5.07-4.81c1.16,1.92,1.44,3.74-1.17,4.54
			C268.53,371.35,267.33,374.71,265.83,371.26z"/>
	</g>
</g>
</svg>
